# xmcd
#
# Track frame offsets:
#  150
#  15378
#  36566
#  53253
#  66778
#  84368
#  107354
#  124711
#  144959
#  164939
#  177438
#  194264
#  211065
#  239616
#  258579
#  270903
#  292225
#  303680
#
# Disc length: 4374 seconds
#
# Revision: 0
# Processed by: cddbd v1.5.2PL0 Copyright (c) Steve Scherf et al.
# Submitted via: AltoMP3_Maker 3.0
#
DISCID=03111412
DTITLE=Jerry Jeff Walker - Live from Austin, TX - Dixie's Bar and Bus Stop, CD 1
DYEAR=1900
DGENRE=
TTITLE0=Little Bird
TTITLE1=London Homesick Blues
TTITLE2=Up Against the Wall Redneck Mother
TTITLE3=Charlie Dunn
TTITLE4=Like a Coat from the Cold
TTITLE5=Mr. Bojangles
TTITLE6=Hands on the Wheel
TTITLE7=She Knows Her Daddy Sings
TTITLE8=L. A. Freeway
TTITLE9=I Like to Sleep Late in the Morning
TTITLE10=Gettin' By
TTITLE11=Rodeo Cowboy
TTITLE12=Desperados Waiting for the Train
TTITLE13=Rockin' Chair
TTITLE14=Pissin' in the Wind
TTITLE15=Takin' It as It Comes
TTITLE16=Layin' My Life on the Line
TTITLE17=Hill Country Rain
EXTD=
EXTT0=
EXTT1=
EXTT2=
EXTT3=
EXTT4=
EXTT5=
EXTT6=
EXTT7=
EXTT8=
EXTT9=
EXTT10=
EXTT11=
EXTT12=
EXTT13=
EXTT14=
EXTT15=
EXTT16=
EXTT17=
PLAYORDER=
